<svg width="20" height="20" viewBox="0 0 20 20" fill="none" xmlns="http://www.w3.org/2000/svg">
<g clip-path="url(#clip0_4203_3770)">
<path fill-rule="evenodd" clip-rule="evenodd" d="M16.9979 10.6269C17.3293 10.6282 17.599 10.3606 17.6002 10.0292C17.6015 9.69787 17.334 9.4282 17.0026 9.42691L10.6024 9.40193L10.6274 3.00174C10.6287 2.67037 10.3611 2.4007 10.0297 2.39941C9.69835 2.39811 9.42867 2.66569 9.42738 2.99706L9.40241 9.39725L3.00221 9.37228C2.67085 9.37099 2.40117 9.63857 2.39988 9.96993C2.39858 10.3013 2.66616 10.571 2.99753 10.5723L9.39772 10.5972L9.37275 16.9974C9.37146 17.3288 9.63904 17.5985 9.97041 17.5998C10.3018 17.6011 10.5715 17.3335 10.5727 17.0021L10.5977 10.6019L16.9979 10.6269Z" fill="white"/>
</g>
<defs>
<clipPath id="clip0_4203_3770">
<rect width="20" height="20" fill="white"/>
</clipPath>
</defs>
</svg>
